<?xml version="1.0" encoding="utf-8"?>
<!-- Generator: Adobe Illustrator 16.0.0, SVG Export Plug-In . SVG Version: 6.00 Build 0)  -->
<!DOCTYPE svg PUBLIC "-//W3C//DTD SVG 1.1//EN" "http://www.w3.org/Graphics/SVG/1.1/DTD/svg11.dtd">
<svg version="1.1" id="Your_Icon" xmlns="http://www.w3.org/2000/svg" xmlns:xlink="http://www.w3.org/1999/xlink" x="0px" y="0px"
	 width="100px" height="100px" viewBox="0 0 100 100" enable-background="new 0 0 100 100" xml:space="preserve">
<g>
	<path fill="#FFFFFF" d="M22.894,70.47c-0.186,0.036-0.375,0.036-0.562,0.054C22.519,70.506,22.708,70.506,22.894,70.47z"/>
	<path fill="#FFFFFF" d="M25.905,68.869c-0.785,0.784-1.743,1.279-2.748,1.523C24.163,70.147,25.12,69.652,25.905,68.869z"/>
	<path fill="#FFFFFF" d="M83.23,66.244c0.607-0.605,0.605-1.588,0-2.193c-0.604-0.605-1.586-0.605-2.194,0
		c-0.604,0.606-0.604,1.588,0,2.193C81.645,66.848,82.625,66.851,83.23,66.244z"/>
	<path fill="#FFFFFF" d="M21.778,70.576L21.778,70.576c-0.179,0-0.357-0.035-0.536-0.052C21.421,70.541,21.599,70.576,21.778,70.576
		z"/>
	<path fill="#FFFFFF" d="M20.665,70.471c-0.093-0.018-0.181-0.059-0.272-0.081C20.484,70.412,20.572,70.451,20.665,70.471z"/>
	<path fill="#FFFFFF" d="M19.583,70.15c-0.027-0.013-0.051-0.029-0.078-0.042C19.533,70.121,19.557,70.139,19.583,70.15z"/>
	<path fill="#FFFFFF" d="M78.059,68.978c2.185,2.185,5.721,2.185,7.908,0c2.18-2.181,2.18-5.722-0.002-7.905L59.353,34.46
		l-7.905,7.905L78.059,68.978z M80.49,63.503c0.91-0.907,2.383-0.907,3.287,0c0.908,0.909,0.91,2.38,0,3.288
		c-0.909,0.906-2.377,0.904-3.287,0C79.585,65.883,79.585,64.412,80.49,63.503z"/>
	<path fill="#FFFFFF" d="M44.488,19.595c2.227-5.339,1.174-11.725-3.171-16.068c-4.344-4.345-10.728-5.397-16.068-3.17l5.136,5.136
		l5.886,5.887l-7.906,7.904v0.001L17.344,8.262c-2.226,5.34-1.174,11.724,3.17,16.068c4.344,4.344,10.729,5.397,16.068,3.169
		l7.577,7.578l7.904-7.906L44.488,19.595z"/>
	<path fill="#FFFFFF" d="M87.407,3.657l-4.538-4.539L71.686,5.767l-0.777,5.312l0.408,0.409L35.623,47.18l-2.265-2.264
		L17.655,60.619c-2.277,2.277-2.278,5.97,0,8.251c0.547,0.547,1.179,0.954,1.851,1.238c0.027,0.013,0.051,0.029,0.079,0.042
		c0.262,0.105,0.536,0.172,0.808,0.238c0.092,0.022,0.18,0.062,0.272,0.081c0.191,0.038,0.385,0.038,0.578,0.054
		c0.179,0.018,0.357,0.053,0.537,0.053c0.185,0,0.368-0.037,0.553-0.053c0.187-0.02,0.376-0.02,0.562-0.055
		c0.089-0.018,0.174-0.056,0.263-0.077c1.005-0.244,1.963-0.739,2.748-1.523L41.61,53.166L39.344,50.9L75.04,15.208l0.409,0.409
		l5.312-0.775L87.407,3.657z"/>
</g>
</svg>
