<?xml version="1.0" encoding="utf-8"?>
<!-- Generator: Adobe Illustrator 16.0.0, SVG Export Plug-In . SVG Version: 6.00 Build 0)  -->
<!DOCTYPE svg PUBLIC "-//W3C//DTD SVG 1.1//EN" "http://www.w3.org/Graphics/SVG/1.1/DTD/svg11.dtd">
<svg version="1.1" id="Calque_1" xmlns="http://www.w3.org/2000/svg" xmlns:xlink="http://www.w3.org/1999/xlink" x="0px" y="0px"
	 width="50.4px" height="50.4px" viewBox="0 0 50.4 50.4" enable-background="new 0 0 50.4 50.4" xml:space="preserve">
<g id="Layer_1">
</g>
<g id="Layer_2">
	<path fill="#FFFFFF" stroke="#FFFFFF" stroke-width="2.1702" d="M22.34,3.312"/>
	<path fill="#FFFFFF" stroke="#FFFFFF" stroke-width="2.1702" d="M22.34,6.527"/>
	<path fill="#FFFFFF" d="M43.64,18.63c-0.231-0.424-1.159-2.161-3.881-3.983c-2.068-1.385-4.069-1.747-4.939-1.754
		c-1.43-0.012-2.532,0.291-2.854,1.584c-0.312,1.262,1.146,2.057,2.213,2.593l-3.689,1.587h-7.079v1.49h-2.144v-1.49h-9.191
		l1.589-3.604l-0.485-1.607l-2.284,5.239l-3.709,2.241l0.006,9.547h1.675l-0.001,3.126c0,1.341,1.083,2.43,2.425,2.43
		s2.43-1.089,2.43-2.43l-0.003-3.126h16.198l-0.002,3.126c0,1.341,1.087,2.43,2.426,2.43c1.343,0,2.43-1.089,2.43-2.43l-0.003-3.126
		h1.674l0.008-9.547l-1.287-0.778l2.532-1.09c0.91,0.682,1.91,1.944,2.378,2.664c0,0,0.253,0.464,0.42,1.051
		c0.149,0.523,0.229,1.268,0.257,1.56v9.794c0,1.035,0.839,1.874,1.875,1.874s1.876-0.839,1.876-1.874V22.469
		C44.499,21.649,44.399,20.012,43.64,18.63z M11.231,26.257c-1.125,0-2.032-0.911-2.032-2.04c0-1.122,0.907-2.033,2.032-2.033
		c1.123,0,2.036,0.911,2.036,2.033C13.267,25.345,12.354,26.257,11.231,26.257z M16.208,27.033l0.003-3.659
		c0-0.508,0.409-0.918,0.914-0.918l9.686-0.018c0.507,0,0.916,0.416,0.916,0.92l0.003,3.662L16.208,27.033z M32.402,26.257
		c-1.122,0-2.033-0.911-2.033-2.04c0-1.122,0.911-2.033,2.033-2.033c1.124,0,2.033,0.911,2.033,2.033
		C34.435,25.345,33.526,26.257,32.402,26.257z"/>
</g>
<g id="Layer_3">
	<path fill="#FFFFFF" d="M30.766,4.813h-7.355V2.956h-2.144v1.857h-7.636c-1.559,0-2.712,1.021-2.142,3.062l1.683,5.593l2.753-6.305
		l1.156,0.017l-3.434,7.871l0.72,2.394c0,0,3.617-0.981,7.592-0.981c4.064,0,8.149,0.981,8.149,0.981l0.818-2.6
		c-0.518,0.482-1.243,0.722-1.983,0.574c-1.228-0.246-2.026-1.454-1.777-2.695c0.248-1.245,1.45-2.05,2.677-1.802
		c0.913,0.181,1.582,0.891,1.769,1.751l1.511-4.798C33.412,6.184,32.575,4.813,30.766,4.813z"/>
</g>
</svg>
