<?xml version="1.0" encoding="utf-8"?>
<!-- Generator: Adobe Illustrator 16.0.0, SVG Export Plug-In . SVG Version: 6.00 Build 0)  -->
<!DOCTYPE svg PUBLIC "-//W3C//DTD SVG 1.1//EN" "http://www.w3.org/Graphics/SVG/1.1/DTD/svg11.dtd">
<svg version="1.1"
	 id="Your_Icon" xmlns:svg="http://www.w3.org/2000/svg" xmlns:inkscape="http://www.inkscape.org/namespaces/inkscape" xmlns:dc="http://purl.org/dc/elements/1.1/" xmlns:rdf="http://www.w3.org/1999/02/22-rdf-syntax-ns#" xmlns:sodipodi="http://sodipodi.sourceforge.net/DTD/sodipodi-0.dtd" xmlns:cc="http://creativecommons.org/ns#" inkscape:version="0.48.4 r9939" sodipodi:docname="police_hatchback_car.svg"
	 xmlns="http://www.w3.org/2000/svg" xmlns:xlink="http://www.w3.org/1999/xlink" x="0px" y="0px" width="100px" height="100px"
	 viewBox="0 0 100 100" enable-background="new 0 0 100 100" xml:space="preserve">
<sodipodi:namedview  inkscape:cy="79.076061" inkscape:cx="-25.074002" inkscape:zoom="1.18" showgrid="false" guidetolerance="10" gridtolerance="10" objecttolerance="10" bordercolor="#666666" pagecolor="#ffffff" id="namedview9" borderopacity="1" inkscape:current-layer="Your_Icon" inkscape:window-maximized="0" inkscape:window-x="0" inkscape:pageopacity="0" inkscape:pageshadow="2" inkscape:window-y="0" inkscape:window-width="1411" inkscape:window-height="782">
	</sodipodi:namedview>
<path id="path3" fill="#FFFFFF" d="M29.053,37.616c3.505,0,6.346,2.84,6.346,6.345c0,3.505-2.841,6.347-6.346,6.347
	c-3.503,0-6.346-2.842-6.346-6.347C22.708,40.456,25.549,37.616,29.053,37.616L29.053,37.616z M29.053,41.003
	c-1.633,0-2.957,1.325-2.957,2.958s1.324,2.958,2.957,2.958c1.634,0,2.958-1.325,2.958-2.958S30.688,41.003,29.053,41.003z"/>
<path id="path5" fill="#FFFFFF" d="M75.642,37.616c3.505,0,6.346,2.84,6.346,6.345c0,3.505-2.841,6.347-6.346,6.347
	c-3.504,0-6.345-2.842-6.345-6.347C69.297,40.456,72.138,37.616,75.642,37.616L75.642,37.616z M75.642,41.003
	c-1.634,0-2.958,1.325-2.958,2.958s1.324,2.958,2.958,2.958s2.958-1.325,2.958-2.958S77.275,41.003,75.642,41.003z"/>
<path id="path7" fill="#FFFFFF" d="M43.889,18.588L33.31,29.167l-19.051,2.13v2.338v10.301l7.5,4.283
	c-0.732-1.249-1.134-2.707-1.134-4.259c0-4.66,3.768-8.426,8.426-8.426c4.66,0,8.449,3.766,8.449,8.426
	c0,1.552-0.426,3.01-1.157,4.259h32.198c-0.746-1.243-1.18-2.702-1.18-4.259c0-4.577,3.71-8.287,8.287-8.287
	c4.576,0,8.287,3.709,8.287,8.287c0,1.556-0.436,3.016-1.182,4.259l5.58-4.236V31.273L69.282,18.588
	C54.404,18.585,54.411,18.591,43.889,18.588z M46.019,20.694h10.579v8.472H37.546L46.019,20.694z M58.681,20.694h8.519l8.473,8.472
	H58.681V20.694z M50.139,32.014h3.936v4.815h4.791v3.935h-4.791v4.815h-3.936v-4.815h-4.814v-3.935h4.814V32.014z"/>
</svg>
