<?xml version="1.0" encoding="utf-8"?>
<!-- Generator: Adobe Illustrator 16.0.0, SVG Export Plug-In . SVG Version: 6.00 Build 0)  -->
<!DOCTYPE svg PUBLIC "-//W3C//DTD SVG 1.1//EN" "http://www.w3.org/Graphics/SVG/1.1/DTD/svg11.dtd">
<svg version="1.1" id="Слой_1" xmlns="http://www.w3.org/2000/svg" xmlns:xlink="http://www.w3.org/1999/xlink" x="0px" y="0px"
	 width="70.523px" height="70.521px" viewBox="0 0 70.523 70.521" enable-background="new 0 0 70.523 70.521" xml:space="preserve">
<g>
	<path fill="#FFFFFF" d="M27.397,25.162l0.268-0.254l0.671-0.64l0.207-0.198c0.183-0.174,0.179-0.461,0.019-0.656
		c-0.061-0.072,0.01-0.172,0.104-0.172c0.572,0.005,1.421,0.116,2.47,0.366c0.479,0.114,1.002,0.259,1.559,0.435
		c0.935,0.295,1.966,0.679,3.07,1.172c0.268,0.119,1.16,0.509,2.332,0.925c0.463,0.165,0.969,0.334,1.497,0.492
		c2.162,0.649,4.695,1.117,6.158,0.395c0.323-0.159,0.599-0.374,0.8-0.661c0.617-0.874,0.44-1.93-0.508-3.142
		c-0.07-0.091-0.135-0.18-0.213-0.271c-0.173-0.2-0.479-0.18-0.67,0.002l-0.077,0.075l-1.067,1.017
		c-0.042,0.04-0.07,0.087-0.094,0.136c-0.077,0.166-0.049,0.37,0.075,0.521c0.062,0.074-0.009,0.174-0.104,0.173
		c-0.187-0.003-0.41-0.016-0.653-0.042c-0.443-0.047-0.973-0.135-1.578-0.27l1.93-1.931c-0.529-0.158-1.035-0.327-1.498-0.492
		c-1.17-0.417-2.063-0.806-2.33-0.926c-1.104-0.493-2.137-0.877-3.07-1.171c-0.558-0.176-1.079-0.32-1.559-0.434l-1.943,1.944
		c-0.553-0.171-1.132-0.331-1.717-0.466c-0.32-0.073-0.643-0.139-0.962-0.193c-1.917-0.328-3.722-0.254-4.506,0.857
		c-0.074,0.104-0.133,0.213-0.185,0.323c-0.409,0.875-0.109,1.91,0.904,3.09C26.9,25.365,27.205,25.345,27.397,25.162z"/>
	<path fill="#FFFFFF" d="M32.38,20.18l0.254-0.243l0.685-0.652l0.207-0.197c0.184-0.174,0.18-0.462,0.018-0.656
		c-0.06-0.073,0.01-0.173,0.104-0.173c0.572,0.005,1.421,0.116,2.472,0.367c0.479,0.114,1.001,0.259,1.558,0.434
		c0.934,0.295,1.966,0.679,3.069,1.172c0.268,0.12,1.161,0.509,2.331,0.926c0.463,0.165,0.97,0.334,1.499,0.492
		c2.161,0.648,4.694,1.117,6.157,0.395c0.324-0.159,0.598-0.374,0.801-0.661c0.616-0.874,0.438-1.929-0.507-3.142
		c-0.072-0.09-0.136-0.179-0.214-0.271c-0.173-0.201-0.479-0.182-0.67,0.001l-0.079,0.075l-1.066,1.017
		c-0.041,0.039-0.07,0.086-0.093,0.136c-0.077,0.166-0.05,0.37,0.075,0.521c0.06,0.073-0.011,0.173-0.104,0.172
		c-0.188-0.002-0.409-0.017-0.655-0.042c-0.441-0.046-0.972-0.134-1.576-0.27l1.93-1.931c-0.528-0.158-1.034-0.327-1.497-0.493
		c-1.172-0.417-2.064-0.806-2.332-0.926c-1.104-0.493-2.135-0.877-3.069-1.171c-0.558-0.176-1.079-0.32-1.559-0.434l-1.943,1.943
		c-0.553-0.171-1.132-0.331-1.717-0.465c-0.321-0.074-0.644-0.14-0.962-0.194c-1.917-0.327-3.72-0.254-4.505,0.856
		c-0.074,0.105-0.133,0.215-0.185,0.323c-0.409,0.876-0.109,1.911,0.905,3.09C31.883,20.381,32.189,20.363,32.38,20.18z"/>
	<path fill="#FFFFFF" d="M37.364,15.197l0.255-0.242l0.684-0.653l0.207-0.196c0.184-0.175,0.179-0.463,0.019-0.657
		c-0.061-0.073,0.01-0.173,0.104-0.172c0.572,0.004,1.421,0.116,2.471,0.366c0.479,0.114,1.001,0.259,1.558,0.434
		c0.935,0.295,1.966,0.68,3.07,1.172c0.268,0.119,1.161,0.509,2.331,0.925c0.463,0.166,0.97,0.334,1.498,0.493
		c2.162,0.647,4.695,1.117,6.158,0.395c0.323-0.16,0.599-0.374,0.8-0.661c0.663-0.938,0.421-2.086-0.72-3.413
		c-0.172-0.2-0.479-0.181-0.67,0.002l-1.146,1.093c-0.041,0.039-0.069,0.085-0.092,0.133c-0.077,0.167-0.051,0.372,0.073,0.523
		c0.062,0.073-0.009,0.173-0.104,0.172c-0.188-0.001-0.41-0.016-0.655-0.042c-0.442-0.046-0.973-0.133-1.577-0.27l3.111-3.111
		c0.633-0.633,0.74-1.582,0.344-2.334l1.729-1.73c1.45,0.258,2.998-0.17,4.118-1.291c1.821-1.82,1.821-4.772,0-6.593
		c-1.821-1.821-4.773-1.821-6.594,0c-1.127,1.128-1.556,2.689-1.285,4.148l-1.717,1.717C50.582,5.004,49.632,5.113,49,5.745
		l-5.842,5.842c-2.68-0.828-6.032-1.435-7.186,0.198c-0.074,0.104-0.132,0.213-0.185,0.322c-0.408,0.876-0.108,1.911,0.906,3.09
		C36.866,15.399,37.172,15.379,37.364,15.197z M59.105,1.364c0.688,0.687,0.785,1.731,0.312,2.529
		c-0.087,0.146-0.187,0.288-0.312,0.414c-0.813,0.812-2.131,0.812-2.942,0c-0.814-0.812-0.814-2.13,0-2.943
		c0.125-0.126,0.266-0.226,0.412-0.312C57.373,0.577,58.418,0.676,59.105,1.364z"/>
	<path fill="#FFFFFF" d="M20.294,48.654c1.482-1.483,2.023-3.55,1.627-5.462l3.919,0.023l1.646-1.647l1.406-1.406l-8.587-8.587
		L18.9,32.981l-1.646,1.646l0.022,3.918c-1.912-0.396-3.979,0.144-5.462,1.628c-2.343,2.342-2.344,6.14,0,8.48
		C14.155,50.996,17.952,50.996,20.294,48.654z M14.442,42.802c0.891-0.891,2.333-0.891,3.225,0c0.89,0.891,0.89,2.333,0,3.224
		c-0.891,0.89-2.334,0.891-3.225,0C13.552,45.135,13.552,43.693,14.442,42.802z"/>
	<path fill="#FFFFFF" d="M21.093,30.786l8.588,8.587l0.494,0.495c0.582,0.583,1.527,0.583,2.11,0l1.103-1.104l1.674-1.674
		c0-0.001,0-0.001,0.001-0.002c0.093-0.092,0.165-0.196,0.228-0.303c0.333-0.571,0.262-1.314-0.229-1.806l-1.91-1.909l5.456-5.455
		c-0.529-0.159-1.035-0.327-1.497-0.493c-1.171-0.417-2.064-0.807-2.332-0.926c-1.104-0.492-2.136-0.876-3.07-1.17
		c-0.557-0.176-1.079-0.321-1.558-0.436l-2.739,2.739l-1.072-1.072l-0.854-0.854c-0.489-0.49-1.233-0.562-1.805-0.229
		c-0.006,0.004-0.013,0.006-0.018,0.01c-0.102,0.061-0.2,0.132-0.288,0.219l-2.776,2.777c-0.583,0.582-0.583,1.527,0,2.11
		L21.093,30.786z"/>
</g>
</svg>
