<?xml version="1.0" encoding="utf-8"?>
<!-- Generator: Adobe Illustrator 16.0.0, SVG Export Plug-In . SVG Version: 6.00 Build 0)  -->
<!DOCTYPE svg PUBLIC "-//W3C//DTD SVG 1.1//EN" "http://www.w3.org/Graphics/SVG/1.1/DTD/svg11.dtd">
<svg version="1.1" id="Layer_1" xmlns="http://www.w3.org/2000/svg" xmlns:xlink="http://www.w3.org/1999/xlink" x="0px" y="0px"
	 width="50.4px" height="50.4px" viewBox="0 0 50.4 50.4" enable-background="new 0 0 50.4 50.4" xml:space="preserve">
<path fill="#FFFFFF" d="M19.888,27.969c-0.273,0-0.488-0.216-0.488-0.488c0-0.265,0.215-0.479,0.488-0.479
	c0.264,0,0.489,0.214,0.489,0.479C20.377,27.754,20.152,27.969,19.888,27.969L19.888,27.969z M18.227,27.969
	c-0.274,0-0.489-0.216-0.489-0.488c0-0.265,0.215-0.479,0.489-0.479c0.264,0,0.488,0.214,0.488,0.479
	C18.716,27.754,18.491,27.969,18.227,27.969L18.227,27.969z M16.566,27.969c-0.272,0-0.489-0.216-0.489-0.488
	c0-0.265,0.217-0.479,0.489-0.479c0.265,0,0.488,0.214,0.488,0.479C17.054,27.754,16.831,27.969,16.566,27.969L16.566,27.969z
	 M14.904,27.969c-0.272,0-0.488-0.216-0.488-0.488c0-0.265,0.216-0.479,0.488-0.479c0.265,0,0.489,0.214,0.489,0.479
	C15.393,27.754,15.169,27.969,14.904,27.969L14.904,27.969z M13.244,27.969c-0.274,0-0.489-0.216-0.489-0.488
	c0-0.265,0.215-0.479,0.489-0.479c0.263,0,0.488,0.214,0.488,0.479C13.732,27.754,13.508,27.969,13.244,27.969L13.244,27.969z
	 M11.583,27.969c-0.273,0-0.488-0.216-0.488-0.488c0-0.265,0.215-0.479,0.488-0.479c0.263,0,0.489,0.214,0.489,0.479
	C12.071,27.754,11.845,27.969,11.583,27.969L11.583,27.969z M9.922,27.969c-0.274,0-0.488-0.216-0.488-0.488
	c0-0.265,0.215-0.479,0.488-0.479c0.265,0,0.488,0.214,0.488,0.479C10.41,27.754,10.186,27.969,9.922,27.969L9.922,27.969z"/>
<path fill="#FFFFFF" d="M20.29,26.347c-0.021,0-0.088-0.01-0.099-0.01c-0.263-0.068-0.43-0.323-0.381-0.587
	c0.059-0.224,0.253-0.38,0.479-0.38c0.02,0,0.088,0,0.107,0.009c0.264,0.06,0.431,0.312,0.371,0.576
	C20.719,26.191,20.524,26.347,20.29,26.347L20.29,26.347z M18.668,25.985c-0.021,0-0.089,0-0.108-0.01
	c-0.263-0.059-0.43-0.322-0.371-0.576c0.06-0.234,0.254-0.391,0.479-0.391c0.019,0,0.088,0.01,0.107,0.01
	c0.264,0.06,0.43,0.323,0.371,0.587C19.096,25.83,18.902,25.985,18.668,25.985L18.668,25.985z M17.046,25.635
	c-0.02,0-0.089-0.011-0.098-0.011c-0.273-0.069-0.431-0.322-0.382-0.585c0.059-0.227,0.255-0.383,0.479-0.383
	c0.02,0,0.087,0.011,0.107,0.011c0.264,0.059,0.43,0.312,0.371,0.576C17.475,25.478,17.28,25.635,17.046,25.635L17.046,25.635z
	 M15.423,25.272c-0.019,0-0.088,0-0.107-0.009c-0.264-0.059-0.43-0.323-0.371-0.577c0.059-0.234,0.255-0.391,0.479-0.391
	c0.021,0,0.088,0.011,0.108,0.02c0.127,0.019,0.235,0.098,0.303,0.205c0.068,0.107,0.098,0.244,0.068,0.371
	C15.852,25.117,15.648,25.272,15.423,25.272L15.423,25.272z M13.8,24.921c-0.009,0-0.077-0.01-0.087-0.01
	c-0.284-0.059-0.449-0.322-0.391-0.587c0.059-0.224,0.254-0.381,0.479-0.381c0.021,0,0.089,0.01,0.108,0.01
	c0.264,0.059,0.431,0.322,0.371,0.576C14.231,24.764,14.035,24.921,13.8,24.921L13.8,24.921z M12.179,24.568
	c-0.021,0-0.089-0.01-0.108-0.019c-0.127-0.02-0.234-0.099-0.304-0.205C11.7,24.226,11.671,24.1,11.7,23.973
	c0.049-0.226,0.254-0.392,0.479-0.392c0.019,0,0.087,0.011,0.106,0.02c0.265,0.06,0.431,0.323,0.371,0.577
	C12.609,24.403,12.413,24.568,12.179,24.568L12.179,24.568z M10.557,24.207c-0.021,0-0.089-0.01-0.108-0.01
	c-0.263-0.058-0.431-0.323-0.371-0.586c0.049-0.226,0.254-0.382,0.479-0.382c0.019,0,0.087,0.011,0.106,0.011
	c0.265,0.059,0.431,0.322,0.371,0.586C10.987,24.041,10.781,24.207,10.557,24.207L10.557,24.207z M8.934,23.855
	c-0.02,0-0.087-0.01-0.107-0.01c-0.264-0.068-0.43-0.322-0.371-0.586c0.049-0.225,0.244-0.382,0.479-0.382
	c0.019,0,0.088,0.01,0.107,0.01c0.265,0.059,0.43,0.313,0.372,0.576C9.355,23.7,9.159,23.855,8.934,23.855L8.934,23.855z"/>
<path fill="#FFFFFF" d="M19.156,24.432c-0.089,0-0.176-0.02-0.255-0.068c-0.225-0.138-0.304-0.44-0.176-0.664
	c0.138-0.234,0.449-0.313,0.675-0.176c0.234,0.138,0.313,0.43,0.176,0.664C19.488,24.344,19.322,24.432,19.156,24.432L19.156,24.432
	z M17.719,23.592c-0.089,0-0.177-0.019-0.245-0.067c-0.234-0.139-0.312-0.44-0.177-0.666c0.127-0.224,0.44-0.312,0.665-0.175
	c0.234,0.137,0.312,0.44,0.176,0.664C18.052,23.504,17.885,23.592,17.719,23.592L17.719,23.592z M16.283,22.752
	c-0.088,0-0.176-0.02-0.244-0.068c-0.233-0.138-0.312-0.431-0.176-0.664c0.127-0.226,0.439-0.304,0.664-0.177
	c0.117,0.069,0.195,0.177,0.225,0.304c0.039,0.127,0.02,0.254-0.049,0.371C16.615,22.663,16.46,22.752,16.283,22.752L16.283,22.752z
	 M14.846,21.921c-0.088,0-0.166-0.029-0.244-0.068c-0.234-0.138-0.312-0.439-0.176-0.675c0.127-0.225,0.45-0.303,0.664-0.175
	c0.117,0.067,0.195,0.175,0.234,0.303c0.03,0.126,0.01,0.254-0.059,0.371C15.188,21.823,15.021,21.921,14.846,21.921L14.846,21.921z
	 M13.41,21.081c-0.088,0-0.165-0.029-0.244-0.069c-0.108-0.068-0.195-0.175-0.225-0.304c-0.029-0.126-0.01-0.253,0.049-0.371
	c0.127-0.215,0.439-0.302,0.675-0.166c0.107,0.06,0.186,0.166,0.225,0.294c0.029,0.127,0.01,0.264-0.05,0.372
	C13.752,20.983,13.586,21.081,13.41,21.081L13.41,21.081z M11.984,20.241c-0.089,0-0.177-0.021-0.255-0.069
	c-0.107-0.059-0.186-0.166-0.225-0.293c-0.03-0.128-0.01-0.263,0.059-0.371c0.128-0.227,0.439-0.313,0.665-0.176
	c0.107,0.067,0.195,0.176,0.225,0.303c0.029,0.126,0.02,0.254-0.049,0.361C12.315,20.142,12.159,20.241,11.984,20.241L11.984,20.241
	z M10.547,19.399c-0.088,0-0.176-0.019-0.254-0.067c-0.225-0.138-0.303-0.431-0.166-0.665c0.127-0.225,0.44-0.312,0.664-0.175
	c0.117,0.068,0.195,0.175,0.225,0.302c0.039,0.127,0.019,0.255-0.049,0.371C10.88,19.312,10.723,19.399,10.547,19.399L10.547,19.399
	z M9.11,18.57c-0.088,0-0.166-0.03-0.244-0.069c-0.117-0.069-0.195-0.176-0.225-0.302c-0.039-0.128-0.02-0.256,0.049-0.372
	c0.127-0.216,0.44-0.303,0.664-0.177c0.234,0.138,0.313,0.441,0.176,0.675C9.442,18.471,9.286,18.57,9.11,18.57L9.11,18.57z
	 M7.675,17.729c-0.089,0-0.166-0.03-0.245-0.068c-0.234-0.138-0.313-0.431-0.176-0.665s0.439-0.312,0.665-0.185
	c0.234,0.145,0.312,0.438,0.185,0.673C8.006,17.632,7.849,17.729,7.675,17.729L7.675,17.729z"/>
<path fill="#FFFFFF" d="M21.637,24.794c-0.146,0-0.282-0.059-0.371-0.166c-0.176-0.216-0.147-0.518,0.059-0.694
	c0.205-0.166,0.518-0.138,0.684,0.059c0.176,0.204,0.147,0.518-0.059,0.694C21.862,24.755,21.756,24.794,21.637,24.794
	L21.637,24.794z M20.573,23.524c-0.147,0-0.283-0.069-0.371-0.177c-0.089-0.098-0.127-0.225-0.117-0.361
	c0.01-0.128,0.068-0.244,0.176-0.332c0.195-0.167,0.519-0.137,0.685,0.069c0.176,0.205,0.146,0.508-0.06,0.684
	C20.797,23.485,20.68,23.524,20.573,23.524L20.573,23.524z M19.509,22.244c-0.147,0-0.283-0.059-0.372-0.176
	c-0.176-0.205-0.146-0.509,0.05-0.685c0.205-0.166,0.527-0.137,0.693,0.059c0.176,0.216,0.146,0.518-0.059,0.684
	C19.732,22.205,19.625,22.244,19.509,22.244L19.509,22.244z M18.442,20.973c-0.146,0-0.283-0.069-0.371-0.176
	c-0.176-0.205-0.146-0.518,0.06-0.685c0.205-0.176,0.517-0.138,0.684,0.059c0.089,0.099,0.127,0.226,0.117,0.353
	c-0.02,0.137-0.078,0.254-0.176,0.332C18.668,20.934,18.559,20.973,18.442,20.973L18.442,20.973z M17.377,19.692
	c-0.146,0-0.283-0.058-0.371-0.166c-0.175-0.215-0.146-0.518,0.06-0.694c0.205-0.167,0.517-0.137,0.683,0.06
	c0.177,0.204,0.147,0.517-0.059,0.693C17.602,19.653,17.494,19.692,17.377,19.692L17.377,19.692z M16.312,18.423
	c-0.147,0-0.283-0.067-0.371-0.175c-0.089-0.099-0.127-0.226-0.117-0.362c0.01-0.126,0.077-0.244,0.175-0.331
	c0.196-0.156,0.519-0.138,0.685,0.068c0.176,0.205,0.147,0.518-0.059,0.684C16.537,18.384,16.429,18.423,16.312,18.423
	L16.312,18.423z M15.248,17.143c-0.147,0-0.284-0.06-0.371-0.177c-0.177-0.205-0.147-0.508,0.058-0.684
	c0.206-0.166,0.519-0.138,0.685,0.059c0.088,0.108,0.126,0.234,0.117,0.361c-0.01,0.127-0.078,0.244-0.176,0.332
	C15.471,17.103,15.364,17.143,15.248,17.143L15.248,17.143z M14.182,15.873c-0.147,0-0.284-0.06-0.371-0.177
	c-0.177-0.205-0.146-0.508,0.049-0.685c0.215-0.175,0.527-0.137,0.694,0.06c0.175,0.204,0.146,0.508-0.06,0.685
	C14.407,15.834,14.3,15.873,14.182,15.873L14.182,15.873z M13.117,14.601c-0.146,0-0.283-0.068-0.382-0.185
	c-0.165-0.196-0.136-0.51,0.069-0.685c0.195-0.167,0.518-0.138,0.685,0.058c0.176,0.206,0.146,0.519-0.06,0.694
	C13.342,14.552,13.233,14.601,13.117,14.601L13.117,14.601z M12.052,13.322c-0.146,0-0.283-0.068-0.371-0.176
	c-0.089-0.098-0.127-0.225-0.118-0.353c0.011-0.136,0.078-0.254,0.177-0.331c0.195-0.176,0.518-0.147,0.684,0.058
	c0.089,0.099,0.127,0.226,0.116,0.353c-0.009,0.137-0.077,0.254-0.175,0.332C12.276,13.283,12.169,13.322,12.052,13.322
	L12.052,13.322z M10.987,12.042c-0.146,0-0.284-0.059-0.371-0.167c-0.176-0.205-0.146-0.517,0.059-0.694
	c0.205-0.166,0.518-0.137,0.684,0.06c0.176,0.214,0.146,0.518-0.059,0.694C11.211,12.004,11.103,12.042,10.987,12.042L10.987,12.042
	z M9.922,10.771c-0.146,0-0.283-0.068-0.371-0.176c-0.088-0.098-0.127-0.225-0.117-0.353c0.01-0.137,0.078-0.254,0.176-0.332
	c0.205-0.166,0.519-0.146,0.685,0.06c0.176,0.205,0.156,0.507-0.059,0.683C10.146,10.732,10.039,10.771,9.922,10.771L9.922,10.771z"
	/>
<path fill="#FFFFFF" d="M22.332,22.722c-0.195,0-0.371-0.117-0.449-0.294c-0.06-0.127-0.06-0.255-0.01-0.382
	c0.049-0.117,0.146-0.215,0.263-0.263c0.226-0.099,0.538,0.01,0.636,0.254c0.059,0.117,0.059,0.254,0.01,0.371
	c-0.049,0.127-0.138,0.226-0.265,0.274C22.469,22.702,22.389,22.722,22.332,22.722L22.332,22.722z M21.668,21.198
	c-0.196,0-0.372-0.116-0.45-0.294c-0.05-0.116-0.05-0.254-0.01-0.371c0.049-0.127,0.147-0.224,0.264-0.273
	c0.235-0.098,0.537,0.011,0.646,0.255c0.106,0.244-0.011,0.527-0.255,0.645C21.834,21.169,21.707,21.198,21.668,21.198
	L21.668,21.198z M21.003,19.674c-0.196,0-0.371-0.117-0.45-0.294c-0.106-0.244,0.01-0.537,0.254-0.645
	c0.039-0.01,0.168-0.04,0.196-0.04c0.195,0,0.371,0.118,0.449,0.294c0.048,0.117,0.06,0.254,0.011,0.371
	c-0.05,0.127-0.147,0.216-0.265,0.274C21.14,19.653,21.071,19.674,21.003,19.674L21.003,19.674z M20.347,18.149
	c-0.195,0-0.371-0.117-0.449-0.294c-0.108-0.254,0.009-0.537,0.254-0.645c0.234-0.107,0.538,0.02,0.636,0.255
	c0.058,0.117,0.058,0.254,0.009,0.371c-0.049,0.127-0.137,0.225-0.264,0.273C20.474,18.139,20.407,18.149,20.347,18.149
	L20.347,18.149z M19.683,16.625c-0.195,0-0.371-0.117-0.449-0.294c-0.049-0.117-0.06-0.254-0.01-0.371
	c0.048-0.126,0.146-0.225,0.272-0.273c0.205-0.098,0.527,0.01,0.636,0.254c0.049,0.117,0.049,0.255,0.01,0.372
	c-0.049,0.127-0.146,0.225-0.263,0.272C19.82,16.615,19.753,16.625,19.683,16.625L19.683,16.625z M19.019,15.1
	c-0.195,0-0.372-0.117-0.45-0.294c-0.049-0.116-0.049-0.254,0-0.371c0.039-0.126,0.138-0.215,0.255-0.272
	c0.244-0.099,0.547,0.019,0.645,0.254c0.049,0.117,0.059,0.254,0.01,0.371c-0.048,0.127-0.138,0.215-0.264,0.274
	C19.156,15.09,19.088,15.1,19.019,15.1L19.019,15.1z M18.364,13.576c-0.195,0-0.371-0.117-0.45-0.293
	c-0.106-0.244,0.011-0.538,0.255-0.646c0.029-0.01,0.155-0.039,0.195-0.039c0.195,0,0.371,0.117,0.439,0.294
	c0.06,0.116,0.06,0.254,0.01,0.371c-0.049,0.128-0.137,0.225-0.254,0.273C18.491,13.566,18.432,13.576,18.364,13.576L18.364,13.576z
	 M17.7,12.052c-0.195,0-0.371-0.117-0.449-0.293c-0.049-0.117-0.049-0.255-0.01-0.373c0.048-0.126,0.146-0.214,0.263-0.272
	c0.029-0.01,0.166-0.039,0.195-0.039c0.196,0,0.371,0.117,0.449,0.303c0.049,0.107,0.049,0.244,0.01,0.361
	c-0.049,0.127-0.146,0.226-0.263,0.273C17.837,12.042,17.768,12.052,17.7,12.052L17.7,12.052z M17.036,10.527
	c-0.196,0-0.371-0.118-0.449-0.294c-0.049-0.117-0.049-0.254,0-0.371c0.048-0.127,0.137-0.215,0.263-0.273
	c0.226-0.098,0.537,0.02,0.636,0.254c0.059,0.117,0.059,0.254,0.01,0.371c-0.048,0.127-0.137,0.225-0.263,0.273
	C17.172,10.517,17.103,10.527,17.036,10.527L17.036,10.527z"/>
<path fill="#FFFFFF" d="M23.552,24.061c-0.02,0-0.099,0-0.108-0.011c-0.272-0.068-0.43-0.321-0.371-0.586
	c0.049-0.225,0.245-0.381,0.479-0.381c0.02,0,0.089,0.01,0.108,0.019c0.263,0.06,0.43,0.323,0.36,0.587
	C23.972,23.904,23.777,24.061,23.552,24.061L23.552,24.061z M23.924,22.448c-0.019,0-0.087-0.01-0.108-0.01
	c-0.263-0.068-0.43-0.332-0.371-0.596c0.06-0.215,0.255-0.372,0.479-0.372c0.02,0,0.098,0.011,0.108,0.011
	c0.263,0.058,0.43,0.322,0.371,0.586C24.355,22.292,24.159,22.448,23.924,22.448L23.924,22.448z M24.305,20.827
	c-0.02,0-0.089-0.011-0.106-0.011c-0.265-0.058-0.431-0.322-0.371-0.585c0.049-0.226,0.244-0.382,0.479-0.382
	c0.02,0,0.089,0.01,0.107,0.02c0.127,0.019,0.235,0.097,0.303,0.214c0.069,0.108,0.09,0.235,0.06,0.361
	C24.726,20.67,24.53,20.827,24.305,20.827L24.305,20.827z"/>
<path fill="#FFFFFF" d="M33.849,29.025H44.52c0,0-0.694-8.097-4.908-13.314c-1.003-1.568-4.132-2.54-6.079-0.504
	c0.02-0.085,0.039-0.172,0.051-0.248c0.158-0.962-0.598-2.665-1.373-4.131l1.043-0.816l-1.241-1.586L31.217,9.05
	c-0.153-0.263-0.284-0.486-0.371-0.645c-0.644-1.157-1.346-1.851-3.364-1.7c-4.132,0.309-5.568,3.205-5.896,4.362
	c-0.43,1.519,0.597,2.886,0.597,2.886l0.909,1.006l2.933-2.297l1.241,1.585l-2.821,2.209l3.551,3.931
	c1.341,0.312,2.458-0.243,3.339-1.118c-0.69,1.781-1.288,3.773-1.685,5.378l1.411,2.118c0.15,0.225,0.089,0.528-0.135,0.678
	c-0.083,0.055-0.178,0.082-0.271,0.082c-0.157,0-0.312-0.077-0.406-0.218l-1.339-2.009c-1.572,0.007-5.763,0.024-5.763,0.024
	c-1.012,0-1.832,0.818-1.834,1.831s0.817,1.835,1.83,1.837l9.554,0.034l4.316-9.724c0.121-0.262,0.431-0.378,0.694-0.259
	c0.264,0.12,0.38,0.432,0.259,0.694L33.849,29.025z M29.197,10.386c-0.317-0.029-0.55-0.309-0.52-0.626
	c0.029-0.316,0.31-0.55,0.626-0.519c0.315,0.028,0.55,0.309,0.52,0.625C29.794,10.183,29.511,10.417,29.197,10.386z"/>
</svg>
